<?xml version="1.0" encoding="UTF-8"?><svg id="uuid-7e512bb0-1865-48a0-87d3-a72022e7e196" xmlns="http://www.w3.org/2000/svg" viewBox="0 0 202.11 160.5"><defs><style>.uuid-f19ad1ba-63ee-4407-9558-3d56c5c0fb78{fill:#fff;}.uuid-48193e8e-4ab1-4d4f-aa91-a1442175ff9b{fill:none;stroke:#fff;stroke-miterlimit:10;}.uuid-4817243d-4875-4bba-badf-cfac8c70979a{fill:#c10000;}</style></defs><path class="uuid-f19ad1ba-63ee-4407-9558-3d56c5c0fb78" d="M202.11,36.95h0C202.11,16.54,185.56,0,165.16,0h-54.63s.13.35.13.35c-.08.12-.13.25-.13.39l10.11,27.49h44.17c4.6,0,8.33,3.73,8.33,8.33,0,5.63-4.57,10.2-10.2,10.2h-35.49l9.54,25.96,17.12,47.05,41.57.22-17.34-47.78c13.94-5.65,23.78-19.31,23.78-35.27Z"/><polygon class="uuid-4817243d-4875-4bba-badf-cfac8c70979a" points="75.09 77.5 60.06 77.5 72.79 42.5 85.53 77.5 85.53 77.5 101.14 120 145.59 120 101.91 0 43.68 0 0 120 90.71 120 75.09 77.5"/><path class="uuid-f19ad1ba-63ee-4407-9558-3d56c5c0fb78" d="M8.25,147.58l6.61-14.7h2.69l6.64,14.7h-2.88l-5.67-13.25h1.09l-5.69,13.25h-2.79ZM11.3,144.18l.76-2.14h7.92l.74,2.14h-9.41Z"/><path class="uuid-f19ad1ba-63ee-4407-9558-3d56c5c0fb78" d="M26.06,147.58v-14.7h6.03c1.96,0,3.5.47,4.61,1.4,1.11.93,1.67,2.21,1.67,3.83,0,1.08-.25,2-.76,2.77-.5.77-1.22,1.37-2.15,1.79-.93.42-2.05.63-3.35.63h-4.52l1.2-1.22v5.5h-2.73ZM28.79,142.37l-1.2-1.32h4.39c1.2,0,2.11-.26,2.72-.78.61-.52.91-1.24.91-2.16s-.3-1.64-.91-2.15c-.61-.51-1.52-.77-2.72-.77h-4.39l1.2-1.34v8.53ZM35.68,147.58l-3.72-5.33h2.92l3.74,5.33h-2.94Z"/><path class="uuid-4817243d-4875-4bba-badf-cfac8c70979a" d="M47.21,147.58v-14.7h2.73v14.7h-2.73ZM49.62,144.12l-.13-3.23,7.69-8h3.09l-6.41,6.8-1.51,1.66-2.73,2.77ZM57.46,147.58l-5.65-6.7,1.83-1.99,7.04,8.69h-3.21Z"/><path class="uuid-4817243d-4875-4bba-badf-cfac8c70979a" d="M62.52,147.58v-14.7h10.73v2.31h-8v12.39h-2.73ZM65.04,141.93v-2.27h7.31v2.27h-7.31Z"/><path class="uuid-4817243d-4875-4bba-badf-cfac8c70979a" d="M74.78,147.58v-1.83l9.49-11.59.34,1.03h-9.68v-2.31h12.12v1.83l-9.49,11.59-.31-1.03h10.1v2.31h-12.56Z"/><path class="uuid-f19ad1ba-63ee-4407-9558-3d56c5c0fb78" d="M88.98,142.86v-2.23h5.8v2.23h-5.8Z"/><path class="uuid-f19ad1ba-63ee-4407-9558-3d56c5c0fb78" d="M100.88,147.58v-12.39h-4.87v-2.31h12.47v2.31h-4.87v12.39h-2.73Z"/><path class="uuid-f19ad1ba-63ee-4407-9558-3d56c5c0fb78" d="M110.54,147.58v-14.7h10.73v2.31h-8v10.08h8.29v2.31h-11.02ZM113.06,141.24v-2.25h7.31v2.25h-7.31Z"/><path class="uuid-f19ad1ba-63ee-4407-9558-3d56c5c0fb78" d="M131.42,147.79c-1.13,0-2.18-.19-3.13-.56-.95-.37-1.78-.9-2.49-1.59-.71-.69-1.26-1.48-1.65-2.39-.39-.91-.59-1.92-.59-3.02s.2-2.11.59-3.02c.39-.91.94-1.71,1.66-2.39.71-.69,1.55-1.21,2.5-1.59.95-.37,2-.56,3.13-.56,1.2,0,2.3.21,3.3.62.99.41,1.83,1.03,2.52,1.84l-1.76,1.66c-.55-.57-1.15-1-1.81-1.29-.66-.29-1.36-.43-2.12-.43s-1.47.13-2.11.38c-.64.25-1.19.61-1.66,1.07-.47.46-.84,1.01-1.1,1.64-.27.63-.4,1.32-.4,2.08s.13,1.45.4,2.08c.27.63.63,1.18,1.1,1.64.47.46,1.02.82,1.66,1.07.64.25,1.34.38,2.11.38s1.46-.14,2.12-.43,1.26-.72,1.81-1.31l1.76,1.66c-.69.81-1.53,1.43-2.52,1.85-.99.42-2.1.63-3.32.63Z"/><path class="uuid-f19ad1ba-63ee-4407-9558-3d56c5c0fb78" d="M139.69,147.58v-14.7h2.73v14.7h-2.73ZM142.21,141.28v-2.33h8.02v2.33h-8.02ZM150.02,147.58v-14.7h2.71v14.7h-2.71Z"/><path class="uuid-f19ad1ba-63ee-4407-9558-3d56c5c0fb78" d="M156.7,147.58v-14.7h2.25l9.22,11.34h-1.11v-11.34h2.69v14.7h-2.25l-9.2-11.34h1.11v11.34h-2.71Z"/><path class="uuid-f19ad1ba-63ee-4407-9558-3d56c5c0fb78" d="M173.71,147.58v-14.7h2.73v14.7h-2.73Z"/><path class="uuid-f19ad1ba-63ee-4407-9558-3d56c5c0fb78" d="M180.41,147.58v-14.7h2.73v14.7h-2.73ZM182.83,144.12l-.13-3.23,7.69-8h3.09l-6.41,6.8-1.51,1.66-2.73,2.77ZM190.66,147.58l-5.65-6.7,1.83-1.99,7.04,8.69h-3.21Z"/><line class="uuid-48193e8e-4ab1-4d4f-aa91-a1442175ff9b" x1="37.27" y1="160" x2="164.84" y2="160"/></svg>