<?xml version="1.0" encoding="UTF-8"?><svg id="uuid-6977c773-d0ba-4188-8dae-003776cbd99b" xmlns="http://www.w3.org/2000/svg" viewBox="0 0 202.11 160.5"><defs><style>.uuid-c80e178e-1fc4-41eb-aeb7-7e082b63af60{fill:#fff;}.uuid-8bb411a5-aaaf-43e1-adb0-3e6779954efa{fill:none;stroke:#fff;stroke-miterlimit:10;}.uuid-0ad09f1e-a197-4c29-97cf-f5c7692f4d63{font-family:Montserrat-SemiBold, Montserrat;font-size:21px;font-variation-settings:'wght' 600;font-weight:600;}.uuid-eb735881-87bd-4b73-809d-0d301826057d{fill:#c10000;}</style></defs><g id="uuid-71d5333f-355f-43a1-a8f1-d5b5368be326"><path class="uuid-c80e178e-1fc4-41eb-aeb7-7e082b63af60" d="M202.11,36.95h0C202.11,16.54,185.56,0,165.16,0h-54.63s.13.35.13.35c-.08.12-.13.25-.13.39l10.11,27.49h44.17c4.6,0,8.33,3.73,8.33,8.33,0,5.63-4.57,10.2-10.2,10.2h-35.49l9.54,25.96,17.12,47.05,41.57.22-17.34-47.78c13.94-5.65,23.78-19.31,23.78-35.27Z"/><polygon class="uuid-eb735881-87bd-4b73-809d-0d301826057d" points="75.09 77.5 60.06 77.5 72.79 42.5 85.53 77.5 85.53 77.5 101.14 120 145.59 120 101.91 0 43.68 0 0 120 90.71 120 75.09 77.5"/><text class="uuid-0ad09f1e-a197-4c29-97cf-f5c7692f4d63" transform="translate(8.36 147.58)"><tspan class="uuid-c80e178e-1fc4-41eb-aeb7-7e082b63af60" x="0" y="0">AR</tspan><tspan x="31.08" y="0"> </tspan><tspan class="uuid-eb735881-87bd-4b73-809d-0d301826057d" x="36.88" y="0">KFZ</tspan><tspan class="uuid-c80e178e-1fc4-41eb-aeb7-7e082b63af60" x="79.48" y="0">-TECHNIK</tspan></text><line class="uuid-8bb411a5-aaaf-43e1-adb0-3e6779954efa" x1="37.27" y1="160" x2="164.84" y2="160"/></g></svg>